<svg xmlns="http://www.w3.org/2000/svg" viewBox="0 0 123.7 141.65"><defs><style>.cls-1{fill:#142dc8;}</style></defs><title>Asset 10</title><g id="Layer_2" data-name="Layer 2"><g id="LOGO"><path class="cls-1" d="M93.67,0H26.44V10.2L15.11,7.93V65.28l45,34.72L105,65.28V7.93L93.67,10.2ZM87.22,66.13h0L82.35,54.28l-7,9.85,3.48,8.47h0L60.06,87.12,41.26,72.6h0l3.48-8.46-7-9.85L32.9,66.13h0l-7.59-5.86V43.18l34.74,25.5L73.25,59v0l.06-.08L94.8,43.18V60.27ZM50.84,49.27h0l6.79-16.51h4.83l6.79,16.52L60.05,56Zm44-28.9V30.53L77.74,43.06l-8.4-20.43H50.77l-8.4,20.42h0L25.31,30.53V20.37l11.33,2.27V10.18H83.47V22.64Z"/><path class="cls-1" d="M12.86,121.65H10.05L0,141.32H4.43l2.05-4h9.93l2.08,4h4.42ZM8.38,133.52l3.07-6,3.05,6Z"/><polygon class="cls-1" points="39.2 121.65 32.18 135.49 25.16 121.65 20.72 121.65 30.78 141.32 33.58 141.32 43.64 121.65 39.2 121.65"/><path class="cls-1" d="M54.31,121.65H51.5l-10,19.67h4.43l2-4h9.93l2.07,4h4.43Zm-4.48,11.87,3.07-6,3.05,6Z"/><polygon class="cls-1" points="62.1 125.59 68.95 125.59 68.95 141.32 72.89 141.32 72.89 125.59 79.62 125.59 79.62 121.65 62.07 121.65 62.1 125.59"/><polygon class="cls-1" points="115.92 131.5 123.4 121.65 118.28 121.65 112.39 129.53 108.42 129.53 108.42 121.65 104.45 121.65 104.45 141.32 108.42 141.32 108.42 133.47 112.42 133.47 118.58 141.65 123.7 141.63 115.92 131.5"/><polygon class="cls-1" points="84.01 125.59 97.93 125.59 100.26 121.66 84.01 121.66 84.01 125.59"/><polygon class="cls-1" points="87.97 137.41 87.97 133.47 98.17 133.47 98.17 129.53 84.01 129.53 84.01 141.32 100.11 141.25 98.51 137.41 87.97 137.41"/></g></g></svg>