<svg xmlns="http://www.w3.org/2000/svg" viewBox="0 0 385.29 93.14"><defs><style>.cls-1{fill:#f5f5f5;}</style></defs><title>Asset 18</title><g id="Layer_2" data-name="Layer 2"><g id="LOGO"><path class="cls-1" d="M73.17,0H10.55V9.5L0,7.39V60.8L41.87,93.14,83.72,60.8V7.39L73.17,9.5Zm-6,61.59h0l-4.54-11-6.5,9.18,3.24,7.88h0L41.87,81.14,24.36,67.62h0l3.24-7.88-6.49-9.17-4.54,11h0L9.5,56.14V40.22L41.86,64l12.29-9v0l.06-.07,20-14.69V56.14ZM33.29,45.89h0l6.32-15.38h4.51L50.44,45.9l-8.58,6.29ZM74.23,19v9.45L58.33,40.1l-7.82-19H33.21l-7.82,19h0L9.5,28.43V19l10.55,2.11V9.48H63.67V21.09Z"/><path class="cls-1" d="M135.89,24.92h-6.31L107,69.17h10l4.61-9.09h22.35l4.66,9.09h10Zm-10.06,26.7,6.9-13.54,6.86,13.54Z"/><polygon class="cls-1" points="195.17 24.92 179.37 56.05 163.56 24.92 153.59 24.92 176.22 69.17 182.52 69.17 205.14 24.92 195.17 24.92"/><path class="cls-1" d="M229.15,24.92h-6.31L200.22,69.17h10l4.61-9.09h22.35l4.66,9.09h10Zm-10.06,26.7L226,38.08l6.86,13.54Z"/><polygon class="cls-1" points="246.68 33.77 262.09 33.77 262.09 69.17 270.96 69.17 270.96 33.77 286.11 33.77 286.11 24.92 246.61 24.92 246.68 33.77"/><polygon class="cls-1" points="367.77 47.06 384.61 24.91 373.09 24.92 359.84 42.65 350.9 42.65 350.9 24.92 341.98 24.92 341.98 69.17 350.9 69.17 350.9 51.5 359.89 51.5 373.76 69.91 385.29 69.87 367.77 47.06"/><polygon class="cls-1" points="295.97 33.77 327.3 33.77 332.55 24.92 295.97 24.92 295.97 33.77"/><polygon class="cls-1" points="304.9 60.37 304.9 51.49 327.86 51.49 327.83 42.65 295.97 42.65 295.97 69.17 332.21 69.01 328.62 60.37 304.9 60.37"/></g></g></svg>