<svg xmlns="http://www.w3.org/2000/svg" viewBox="0 0 1600 1520"><defs><style>.cls-1,.cls-2{fill:none;}.cls-1{stroke:#191919;stroke-miterlimit:10;stroke-width:8px;}.cls-3{fill:#b9af00;}</style></defs><title>Asset 9</title><g id="Layer_2" data-name="Layer 2"><g id="Pattern"><line class="cls-1" x1="70" y1="1240" x2="180" y2="1240"/><line class="cls-1" x1="200" y1="1240" x2="320" y2="1240"/><line class="cls-1" x1="400" y1="1240" x2="530" y2="1240"/><line class="cls-1" x1="340" y1="1240" x2="380" y2="1240"/><line class="cls-1" y1="1240" x2="50" y2="1240"/><line class="cls-1" x1="550" y1="1240" x2="590" y2="1240"/><line class="cls-1" x1="660" y1="1240" x2="760" y2="1240"/><line class="cls-1" x1="100" y1="1289.41" x2="150" y2="1290"/><line class="cls-1" y1="1390" x2="40" y2="1390"/><line class="cls-1" x1="110" y1="1390" x2="180" y2="1390"/><line class="cls-1" x1="540" y1="1390" x2="580" y2="1390"/><line class="cls-1" x1="660" y1="1340" x2="700" y2="1340"/><line class="cls-1" x1="220" y1="1290" x2="300" y2="1290"/><line class="cls-1" x1="290" y1="1340" x2="400" y2="1340"/><line class="cls-1" x1="510" y1="1190" x2="670" y2="1190"/><line class="cls-1" x1="200" y1="1390" x2="340" y2="1390"/><line class="cls-1" x1="420" y1="1340" x2="510" y2="1340"/><line class="cls-1" x1="320" y1="1290" x2="380" y2="1290"/><line class="cls-1" x1="420" y1="1190" x2="490" y2="1190"/><line class="cls-1" x1="730" y1="1190" x2="800" y2="1190"/><line class="cls-1" x1="360" y1="1390" x2="480" y2="1390"/><line class="cls-1" x1="640" y1="1390" x2="800" y2="1390"/><line class="cls-1" x1="440" y1="1290" x2="620" y2="1290"/><line class="cls-1" x1="80" y1="1340" x2="230" y2="1340"/><line class="cls-1" x1="400" y1="1290" x2="420" y2="1290"/><line class="cls-1" x1="250" y1="1340" x2="270" y2="1340"/><line class="cls-1" x1="60" y1="1290" x2="80" y2="1290"/><line class="cls-1" y1="1290" x2="40" y2="1290"/><line class="cls-1" x1="720" y1="1340" x2="800" y2="1340"/><line class="cls-1" x1="500" y1="1390" x2="520" y2="1390"/><line class="cls-1" x1="600" y1="1390" x2="620" y2="1390"/><line class="cls-1" y1="1190" x2="80" y2="1190"/><line class="cls-1" x1="310" y1="1190" x2="350" y2="1190"/><line class="cls-1" x1="210" y1="1190" x2="250" y2="1190"/><line class="cls-1" x1="270" y1="1190" x2="290" y2="1190"/><line class="cls-1" x1="70" y1="1440" x2="220" y2="1440"/><line class="cls-1" x1="319.33" y1="1440.18" x2="390" y2="1440"/><line class="cls-1" y1="1440" x2="50" y2="1440"/><line class="cls-1" x1="100" y1="1190.18" x2="190" y2="1190"/><line class="cls-1" x1="409.33" y1="1440" x2="480" y2="1439.82"/><line class="cls-1" x1="500" y1="1440" x2="650" y2="1440"/><line class="cls-1" x1="280" y1="1440" x2="300" y2="1440"/><line class="cls-1" x1="360" y1="1490" x2="380" y2="1490"/><line class="cls-1" x1="240" y1="1440" x2="260" y2="1440"/><line class="cls-1" x1="580" y1="1340" x2="640" y2="1340"/><line class="cls-1" y1="1340" x2="60" y2="1340"/><line class="cls-1" x1="670" y1="1440" x2="730" y2="1440"/><line class="cls-1" x1="700" y1="1490" x2="800" y2="1490"/><line class="cls-1" x1="190" y1="1140" x2="320" y2="1140"/><line class="cls-1" x1="140" y1="1140" x2="170" y2="1140"/><line class="cls-1" x1="50" y1="1140" x2="70" y2="1140"/><line class="cls-1" y1="1140" x2="30" y2="1140"/><line class="cls-1" x1="540" y1="1140" x2="580" y2="1140"/><line class="cls-1" x1="340" y1="1140" x2="480" y2="1140"/><line class="cls-1" x1="640" y1="1140" x2="800" y2="1140"/><line class="cls-1" x1="500" y1="1140" x2="520" y2="1140"/><line class="cls-1" x1="600" y1="1140" x2="620" y2="1140"/><line class="cls-1" x1="400" y1="1490" x2="480" y2="1490"/><line class="cls-1" x1="550" y1="1490" x2="680" y2="1490"/><line class="cls-1" x1="60" y1="1490" x2="80" y2="1490"/><line class="cls-1" x1="750" y1="1290" x2="800" y2="1290"/><line class="cls-1" x1="750" y1="1440" x2="800" y2="1440"/><line class="cls-1" x1="690" y1="1190" x2="710" y2="1190"/><line class="cls-1" x1="780" y1="1240" x2="800" y2="1240"/><line class="cls-1" x1="100" y1="1490" x2="180" y2="1490"/><line class="cls-1" y1="1490" x2="40" y2="1490"/><line class="cls-1" x1="250" y1="1490" x2="340" y2="1490"/><line class="cls-1" x1="640" y1="1290" x2="730" y2="1290"/><line class="cls-1" x1="870" y1="1240" x2="980" y2="1240"/><line class="cls-1" x1="1000" y1="1240" x2="1120" y2="1240"/><line class="cls-1" x1="1200" y1="1240" x2="1330" y2="1240"/><line class="cls-1" x1="1140" y1="1240" x2="1180" y2="1240"/><line class="cls-1" x1="800" y1="1240" x2="850" y2="1240"/><line class="cls-1" x1="1350" y1="1240" x2="1390" y2="1240"/><line class="cls-1" x1="1460" y1="1240" x2="1560" y2="1240"/><line class="cls-1" x1="900" y1="1289.41" x2="950" y2="1290"/><line class="cls-1" x1="800" y1="1390" x2="840" y2="1390"/><line class="cls-1" x1="910" y1="1390" x2="980" y2="1390"/><line class="cls-1" x1="1340" y1="1390" x2="1380" y2="1390"/><line class="cls-1" x1="1460" y1="1340" x2="1500" y2="1340"/><line class="cls-1" x1="1020" y1="1290" x2="1100" y2="1290"/><line class="cls-1" x1="1090" y1="1340" x2="1200" y2="1340"/><line class="cls-1" x1="1310" y1="1190" x2="1470" y2="1190"/><line class="cls-1" x1="1000" y1="1390" x2="1140" y2="1390"/><line class="cls-1" x1="1220" y1="1340" x2="1310" y2="1340"/><line class="cls-1" x1="1120" y1="1290" x2="1180" y2="1290"/><line class="cls-1" x1="1220" y1="1190" x2="1290" y2="1190"/><line class="cls-1" x1="1530" y1="1190" x2="1600" y2="1190"/><line class="cls-1" x1="1160" y1="1390" x2="1280" y2="1390"/><line class="cls-1" x1="1440" y1="1390" x2="1600" y2="1390"/><line class="cls-1" x1="1240" y1="1290" x2="1420" y2="1290"/><line class="cls-1" x1="880" y1="1340" x2="1030" y2="1340"/><line class="cls-1" x1="1200" y1="1290" x2="1220" y2="1290"/><line class="cls-1" x1="1050" y1="1340" x2="1070" y2="1340"/><line class="cls-1" x1="860" y1="1290" x2="880" y2="1290"/><line class="cls-1" x1="800" y1="1290" x2="840" y2="1290"/><line class="cls-1" x1="1520" y1="1340" x2="1600" y2="1340"/><line class="cls-1" x1="1300" y1="1390" x2="1320" y2="1390"/><line class="cls-1" x1="1400" y1="1390" x2="1420" y2="1390"/><line class="cls-1" x1="800" y1="1190" x2="880" y2="1190"/><line class="cls-1" x1="1110" y1="1190" x2="1150" y2="1190"/><line class="cls-1" x1="1010" y1="1190" x2="1050" y2="1190"/><line class="cls-1" x1="1070" y1="1190" x2="1090" y2="1190"/><line class="cls-1" x1="870" y1="1440" x2="1020" y2="1440"/><line class="cls-1" x1="1119.33" y1="1440.18" x2="1190" y2="1440"/><line class="cls-1" x1="800" y1="1440" x2="850" y2="1440"/><line class="cls-1" x1="900" y1="1190.18" x2="990" y2="1190"/><line class="cls-1" x1="1209.33" y1="1440" x2="1280" y2="1439.82"/><line class="cls-1" x1="1300" y1="1440" x2="1450" y2="1440"/><line class="cls-1" x1="1080" y1="1440" x2="1100" y2="1440"/><line class="cls-1" x1="1160" y1="1490" x2="1180" y2="1490"/><line class="cls-1" x1="1040" y1="1440" x2="1060" y2="1440"/><line class="cls-1" x1="1380" y1="1340" x2="1440" y2="1340"/><line class="cls-1" x1="800" y1="1340" x2="860" y2="1340"/><line class="cls-1" x1="1470" y1="1440" x2="1530" y2="1440"/><line class="cls-1" x1="1500" y1="1490" x2="1600" y2="1490"/><line class="cls-1" x1="990" y1="1140" x2="1120" y2="1140"/><line class="cls-1" x1="940" y1="1140" x2="970" y2="1140"/><line class="cls-1" x1="850" y1="1140" x2="870" y2="1140"/><line class="cls-1" x1="800" y1="1140" x2="830" y2="1140"/><line class="cls-1" x1="1340" y1="1140" x2="1380" y2="1140"/><line class="cls-1" x1="1140" y1="1140" x2="1280" y2="1140"/><line class="cls-1" x1="1440" y1="1140" x2="1600" y2="1140"/><line class="cls-1" x1="1300" y1="1140" x2="1320" y2="1140"/><line class="cls-1" x1="1400" y1="1140" x2="1420" y2="1140"/><line class="cls-1" x1="1200" y1="1490" x2="1280" y2="1490"/><line class="cls-1" x1="1350" y1="1490" x2="1480" y2="1490"/><line class="cls-1" x1="860" y1="1490" x2="880" y2="1490"/><line class="cls-1" x1="1550" y1="1290" x2="1600" y2="1290"/><line class="cls-1" x1="1550" y1="1440" x2="1600" y2="1440"/><line class="cls-1" x1="1490" y1="1190" x2="1510" y2="1190"/><line class="cls-1" x1="1580" y1="1240" x2="1600" y2="1240"/><line class="cls-1" x1="900" y1="1490" x2="980" y2="1490"/><line class="cls-1" x1="800" y1="1490" x2="840" y2="1490"/><line class="cls-1" x1="1050" y1="1490" x2="1140" y2="1490"/><line class="cls-1" x1="1440" y1="1290" x2="1530" y2="1290"/><line class="cls-1" x1="70" y1="840" x2="180" y2="840"/><line class="cls-1" x1="200" y1="840" x2="320" y2="840"/><line class="cls-1" x1="400" y1="840" x2="530" y2="840"/><line class="cls-1" x1="340" y1="840" x2="380" y2="840"/><line class="cls-1" y1="840" x2="50" y2="840"/><line class="cls-1" x1="550" y1="840" x2="590" y2="840"/><line class="cls-1" x1="660" y1="840" x2="760" y2="840"/><line class="cls-1" x1="100" y1="889.41" x2="150" y2="890"/><line class="cls-1" y1="990" x2="40" y2="990"/><line class="cls-1" x1="110" y1="990" x2="180" y2="990"/><line class="cls-1" x1="540" y1="990" x2="580" y2="990"/><line class="cls-1" x1="660" y1="940" x2="700" y2="940"/><line class="cls-1" x1="220" y1="890" x2="300" y2="890"/><line class="cls-1" x1="290" y1="940" x2="400" y2="940"/><line class="cls-1" x1="510" y1="790" x2="670" y2="790"/><line class="cls-1" x1="200" y1="990" x2="340" y2="990"/><line class="cls-1" x1="420" y1="940" x2="510" y2="940"/><line class="cls-1" x1="320" y1="890" x2="380" y2="890"/><line class="cls-1" x1="420" y1="790" x2="490" y2="790"/><line class="cls-1" x1="730" y1="790" x2="800" y2="790"/><line class="cls-1" x1="360" y1="990" x2="480" y2="990"/><line class="cls-1" x1="640" y1="990" x2="800" y2="990"/><line class="cls-1" x1="440" y1="890" x2="620" y2="890"/><line class="cls-1" x1="80" y1="940" x2="230" y2="940"/><line class="cls-1" x1="400" y1="890" x2="420" y2="890"/><line class="cls-1" x1="250" y1="940" x2="270" y2="940"/><line class="cls-1" x1="60" y1="890" x2="80" y2="890"/><line class="cls-1" y1="890" x2="40" y2="890"/><line class="cls-1" x1="720" y1="940" x2="800" y2="940"/><line class="cls-1" x1="500" y1="990" x2="520" y2="990"/><line class="cls-1" x1="600" y1="990" x2="620" y2="990"/><line class="cls-1" y1="790" x2="80" y2="790"/><line class="cls-1" x1="310" y1="790" x2="350" y2="790"/><line class="cls-1" x1="210" y1="790" x2="250" y2="790"/><line class="cls-1" x1="270" y1="790" x2="290" y2="790"/><line class="cls-1" x1="70" y1="1040" x2="220" y2="1040"/><line class="cls-1" x1="319.33" y1="1040.18" x2="390" y2="1040"/><line class="cls-1" y1="1040" x2="50" y2="1040"/><line class="cls-1" x1="100" y1="790.18" x2="190" y2="790"/><line class="cls-1" x1="409.33" y1="1040" x2="480" y2="1039.82"/><line class="cls-1" x1="500" y1="1040" x2="650" y2="1040"/><line class="cls-1" x1="280" y1="1040" x2="300" y2="1040"/><line class="cls-1" x1="360" y1="1090" x2="380" y2="1090"/><line class="cls-1" x1="240" y1="1040" x2="260" y2="1040"/><line class="cls-1" x1="580" y1="940" x2="640" y2="940"/><line class="cls-1" y1="940" x2="60" y2="940"/><line class="cls-1" x1="670" y1="1040" x2="730" y2="1040"/><line class="cls-1" x1="700" y1="1090" x2="800" y2="1090"/><line class="cls-1" x1="190" y1="740" x2="320" y2="740"/><line class="cls-1" x1="140" y1="740" x2="170" y2="740"/><line class="cls-1" x1="50" y1="740" x2="70" y2="740"/><line class="cls-1" y1="740" x2="30" y2="740"/><line class="cls-1" x1="540" y1="740" x2="580" y2="740"/><line class="cls-1" x1="340" y1="740" x2="480" y2="740"/><line class="cls-1" x1="640" y1="740" x2="800" y2="740"/><line class="cls-1" x1="500" y1="740" x2="520" y2="740"/><line class="cls-1" x1="600" y1="740" x2="620" y2="740"/><line class="cls-1" x1="400" y1="1090" x2="480" y2="1090"/><line class="cls-1" x1="550" y1="1090" x2="680" y2="1090"/><line class="cls-1" x1="60" y1="1090" x2="80" y2="1090"/><line class="cls-1" x1="750" y1="890" x2="800" y2="890"/><line class="cls-1" x1="750" y1="1040" x2="800" y2="1040"/><line class="cls-1" x1="690" y1="790" x2="710" y2="790"/><line class="cls-1" x1="780" y1="840" x2="800" y2="840"/><line class="cls-1" x1="100" y1="1090" x2="180" y2="1090"/><line class="cls-1" y1="1090" x2="40" y2="1090"/><line class="cls-1" x1="250" y1="1090" x2="340" y2="1090"/><line class="cls-1" x1="640" y1="890" x2="730" y2="890"/><line class="cls-1" x1="870" y1="840" x2="980" y2="840"/><line class="cls-1" x1="1000" y1="840" x2="1120" y2="840"/><line class="cls-1" x1="1200" y1="840" x2="1330" y2="840"/><line class="cls-1" x1="1140" y1="840" x2="1180" y2="840"/><line class="cls-1" x1="800" y1="840" x2="850" y2="840"/><line class="cls-1" x1="1350" y1="840" x2="1390" y2="840"/><line class="cls-1" x1="1460" y1="840" x2="1560" y2="840"/><line class="cls-1" x1="900" y1="889.41" x2="950" y2="890"/><line class="cls-1" x1="800" y1="990" x2="840" y2="990"/><line class="cls-1" x1="910" y1="990" x2="980" y2="990"/><line class="cls-1" x1="1340" y1="990" x2="1380" y2="990"/><line class="cls-1" x1="1460" y1="940" x2="1500" y2="940"/><line class="cls-1" x1="1020" y1="890" x2="1100" y2="890"/><line class="cls-1" x1="1090" y1="940" x2="1200" y2="940"/><line class="cls-1" x1="1310" y1="790" x2="1470" y2="790"/><line class="cls-1" x1="1000" y1="990" x2="1140" y2="990"/><line class="cls-1" x1="1220" y1="940" x2="1310" y2="940"/><line class="cls-1" x1="1120" y1="890" x2="1180" y2="890"/><line class="cls-1" x1="1220" y1="790" x2="1290" y2="790"/><line class="cls-1" x1="1530" y1="790" x2="1600" y2="790"/><line class="cls-1" x1="1160" y1="990" x2="1280" y2="990"/><line class="cls-1" x1="1440" y1="990" x2="1600" y2="990"/><line class="cls-1" x1="1240" y1="890" x2="1420" y2="890"/><line class="cls-1" x1="880" y1="940" x2="1030" y2="940"/><line class="cls-1" x1="1200" y1="890" x2="1220" y2="890"/><line class="cls-1" x1="1050" y1="940" x2="1070" y2="940"/><line class="cls-1" x1="860" y1="890" x2="880" y2="890"/><line class="cls-1" x1="800" y1="890" x2="840" y2="890"/><line class="cls-1" x1="1520" y1="940" x2="1600" y2="940"/><line class="cls-1" x1="1300" y1="990" x2="1320" y2="990"/><line class="cls-1" x1="1400" y1="990" x2="1420" y2="990"/><line class="cls-1" x1="800" y1="790" x2="880" y2="790"/><line class="cls-1" x1="1110" y1="790" x2="1150" y2="790"/><line class="cls-1" x1="1010" y1="790" x2="1050" y2="790"/><line class="cls-1" x1="1070" y1="790" x2="1090" y2="790"/><line class="cls-1" x1="870" y1="1040" x2="1020" y2="1040"/><line class="cls-1" x1="1119.33" y1="1040.18" x2="1190" y2="1040"/><line class="cls-1" x1="800" y1="1040" x2="850" y2="1040"/><line class="cls-1" x1="900" y1="790.18" x2="990" y2="790"/><line class="cls-1" x1="1209.33" y1="1040" x2="1280" y2="1039.82"/><line class="cls-1" x1="1300" y1="1040" x2="1450" y2="1040"/><line class="cls-1" x1="1080" y1="1040" x2="1100" y2="1040"/><line class="cls-1" x1="1160" y1="1090" x2="1180" y2="1090"/><line class="cls-1" x1="1040" y1="1040" x2="1060" y2="1040"/><line class="cls-1" x1="1380" y1="940" x2="1440" y2="940"/><line class="cls-1" x1="800" y1="940" x2="860" y2="940"/><line class="cls-1" x1="1470" y1="1040" x2="1530" y2="1040"/><line class="cls-1" x1="1500" y1="1090" x2="1600" y2="1090"/><line class="cls-1" x1="990" y1="740" x2="1120" y2="740"/><line class="cls-1" x1="940" y1="740" x2="970" y2="740"/><line class="cls-1" x1="850" y1="740" x2="870" y2="740"/><line class="cls-1" x1="800" y1="740" x2="830" y2="740"/><line class="cls-1" x1="1340" y1="740" x2="1380" y2="740"/><line class="cls-1" x1="1140" y1="740" x2="1280" y2="740"/><line class="cls-1" x1="1440" y1="740" x2="1600" y2="740"/><line class="cls-1" x1="1300" y1="740" x2="1320" y2="740"/><line class="cls-1" x1="1400" y1="740" x2="1420" y2="740"/><line class="cls-1" x1="1200" y1="1090" x2="1280" y2="1090"/><line class="cls-1" x1="1350" y1="1090" x2="1480" y2="1090"/><line class="cls-1" x1="860" y1="1090" x2="880" y2="1090"/><line class="cls-1" x1="1550" y1="890" x2="1600" y2="890"/><line class="cls-1" x1="1550" y1="1040" x2="1600" y2="1040"/><line class="cls-1" x1="1490" y1="790" x2="1510" y2="790"/><line class="cls-1" x1="1580" y1="840" x2="1600" y2="840"/><line class="cls-1" x1="900" y1="1090" x2="980" y2="1090"/><line class="cls-1" x1="800" y1="1090" x2="840" y2="1090"/><line class="cls-1" x1="1050" y1="1090" x2="1140" y2="1090"/><line class="cls-1" x1="1440" y1="890" x2="1530" y2="890"/><rect class="cls-2" y="720" width="1600" height="800"/><polygon class="cls-3" points="180 1300 180 1290 180 1280 190 1280 200 1280 180 1300"/><polygon class="cls-3" points="100 1150 100 1140 100 1130 110 1130 120 1130 100 1150"/><polygon class="cls-3" points="70 1400 70 1390 70 1380 80 1380 90 1380 70 1400"/><polygon class="cls-3" points="510 1500 510 1490 510 1480 520 1480 530 1480 510 1500"/><polygon class="cls-3" points="210 1500 210 1490 210 1480 220 1480 230 1480 210 1500"/><polygon class="cls-3" points="540 1350 540 1340 540 1330 550 1330 560 1330 540 1350"/><polygon class="cls-3" points="380 1200 380 1190 380 1180 390 1180 400 1180 380 1200"/><polygon class="cls-3" points="620 1250 620 1240 620 1230 630 1230 640 1230 620 1250"/><polygon class="cls-3" points="980 1300 980 1290 980 1280 990 1280 1000 1280 980 1300"/><polygon class="cls-3" points="900 1150 900 1140 900 1130 910 1130 920 1130 900 1150"/><polygon class="cls-3" points="870 1400 870 1390 870 1380 880 1380 890 1380 870 1400"/><polygon class="cls-3" points="1310 1500 1310 1490 1310 1480 1320 1480 1330 1480 1310 1500"/><polygon class="cls-3" points="1010 1500 1010 1490 1010 1480 1020 1480 1030 1480 1010 1500"/><polygon class="cls-3" points="1340 1350 1340 1340 1340 1330 1350 1330 1360 1330 1340 1350"/><polygon class="cls-3" points="1180 1200 1180 1190 1180 1180 1190 1180 1200 1180 1180 1200"/><polygon class="cls-3" points="1420 1250 1420 1240 1420 1230 1430 1230 1440 1230 1420 1250"/><polygon class="cls-3" points="180 900 180 890 180 880 190 880 200 880 180 900"/><polygon class="cls-3" points="100 750 100 740 100 730 110 730 120 730 100 750"/><polygon class="cls-3" points="70 1000 70 990 70 980 80 980 90 980 70 1000"/><polygon class="cls-3" points="510 1100 510 1090 510 1080 520 1080 530 1080 510 1100"/><polygon class="cls-3" points="210 1100 210 1090 210 1080 220 1080 230 1080 210 1100"/><polygon class="cls-3" points="540 950 540 940 540 930 550 930 560 930 540 950"/><polygon class="cls-3" points="380 800 380 790 380 780 390 780 400 780 380 800"/><polygon class="cls-3" points="620 850 620 840 620 830 630 830 640 830 620 850"/><polygon class="cls-3" points="980 900 980 890 980 880 990 880 1000 880 980 900"/><polygon class="cls-3" points="900 750 900 740 900 730 910 730 920 730 900 750"/><polygon class="cls-3" points="870 1000 870 990 870 980 880 980 890 980 870 1000"/><polygon class="cls-3" points="1310 1100 1310 1090 1310 1080 1320 1080 1330 1080 1310 1100"/><polygon class="cls-3" points="1010 1100 1010 1090 1010 1080 1020 1080 1030 1080 1010 1100"/><polygon class="cls-3" points="1340 950 1340 940 1340 930 1350 930 1360 930 1340 950"/><polygon class="cls-3" points="1180 800 1180 790 1180 780 1190 780 1200 780 1180 800"/><polygon class="cls-3" points="1420 850 1420 840 1420 830 1430 830 1440 830 1420 850"/><rect class="cls-2" y="720" width="1600" height="800"/><rect class="cls-2" x="40" width="800" height="400"/></g></g></svg>