<svg xmlns="http://www.w3.org/2000/svg" viewBox="0 0 1600 800"><defs><style>.cls-1{fill:#142dc8;}.cls-2{fill:none;stroke:#191919;stroke-miterlimit:10;stroke-width:8px;}.cls-3{fill:#b9af00;}</style></defs><title>Asset 8</title><g id="Layer_2" data-name="Layer 2"><g id="Pattern"><rect class="cls-1" width="1600" height="800"/><line class="cls-2" x1="70" y1="520" x2="180" y2="520"/><line class="cls-2" x1="200" y1="520" x2="320" y2="520"/><line class="cls-2" x1="400" y1="520" x2="530" y2="520"/><line class="cls-2" x1="340" y1="520" x2="380" y2="520"/><line class="cls-2" y1="520" x2="50" y2="520"/><line class="cls-2" x1="550" y1="520" x2="590" y2="520"/><line class="cls-2" x1="660" y1="520" x2="760" y2="520"/><line class="cls-2" x1="100" y1="569.41" x2="150" y2="570"/><line class="cls-2" y1="670" x2="40" y2="670"/><line class="cls-2" x1="110" y1="670" x2="180" y2="670"/><line class="cls-2" x1="540" y1="670" x2="580" y2="670"/><line class="cls-2" x1="660" y1="620" x2="700" y2="620"/><line class="cls-2" x1="220" y1="570" x2="300" y2="570"/><line class="cls-2" x1="290" y1="620" x2="400" y2="620"/><line class="cls-2" x1="510" y1="470" x2="670" y2="470"/><line class="cls-2" x1="200" y1="670" x2="340" y2="670"/><line class="cls-2" x1="420" y1="620" x2="510" y2="620"/><line class="cls-2" x1="320" y1="570" x2="380" y2="570"/><line class="cls-2" x1="420" y1="470" x2="490" y2="470"/><line class="cls-2" x1="730" y1="470" x2="800" y2="470"/><line class="cls-2" x1="360" y1="670" x2="480" y2="670"/><line class="cls-2" x1="640" y1="670" x2="800" y2="670"/><line class="cls-2" x1="440" y1="570" x2="620" y2="570"/><line class="cls-2" x1="80" y1="620" x2="230" y2="620"/><line class="cls-2" x1="400" y1="570" x2="420" y2="570"/><line class="cls-2" x1="250" y1="620" x2="270" y2="620"/><line class="cls-2" x1="60" y1="570" x2="80" y2="570"/><line class="cls-2" y1="570" x2="40" y2="570"/><line class="cls-2" x1="720" y1="620" x2="800" y2="620"/><line class="cls-2" x1="500" y1="670" x2="520" y2="670"/><line class="cls-2" x1="600" y1="670" x2="620" y2="670"/><line class="cls-2" y1="470" x2="80" y2="470"/><line class="cls-2" x1="310" y1="470" x2="350" y2="470"/><line class="cls-2" x1="210" y1="470" x2="250" y2="470"/><line class="cls-2" x1="270" y1="470" x2="290" y2="470"/><line class="cls-2" x1="70" y1="720" x2="220" y2="720"/><line class="cls-2" x1="319.33" y1="720.18" x2="390" y2="720"/><line class="cls-2" y1="720" x2="50" y2="720"/><line class="cls-2" x1="100" y1="470.18" x2="190" y2="470"/><line class="cls-2" x1="409.33" y1="720" x2="480" y2="719.82"/><line class="cls-2" x1="500" y1="720" x2="650" y2="720"/><line class="cls-2" x1="280" y1="720" x2="300" y2="720"/><line class="cls-2" x1="360" y1="770" x2="380" y2="770"/><line class="cls-2" x1="240" y1="720" x2="260" y2="720"/><line class="cls-2" x1="580" y1="620" x2="640" y2="620"/><line class="cls-2" y1="620" x2="60" y2="620"/><line class="cls-2" x1="670" y1="720" x2="730" y2="720"/><line class="cls-2" x1="700" y1="770" x2="800" y2="770"/><polygon class="cls-3" points="180 580 180 570 180 560 190 560 200 560 180 580"/><line class="cls-2" x1="190" y1="420" x2="320" y2="420"/><line class="cls-2" x1="140" y1="420" x2="170" y2="420"/><line class="cls-2" x1="50" y1="420" x2="70" y2="420"/><line class="cls-2" y1="420" x2="30" y2="420"/><polygon class="cls-3" points="100 430 100 420 100 410 110 410 120 410 100 430"/><polygon class="cls-3" points="70 680 70 670 70 660 80 660 90 660 70 680"/><line class="cls-2" x1="540" y1="420" x2="580" y2="420"/><line class="cls-2" x1="340" y1="420" x2="480" y2="420"/><line class="cls-2" x1="640" y1="420" x2="800" y2="420"/><line class="cls-2" x1="500" y1="420" x2="520" y2="420"/><line class="cls-2" x1="600" y1="420" x2="620" y2="420"/><line class="cls-2" x1="400" y1="770" x2="480" y2="770"/><line class="cls-2" x1="550" y1="770" x2="680" y2="770"/><line class="cls-2" x1="60" y1="770" x2="80" y2="770"/><line class="cls-2" x1="750" y1="570" x2="800" y2="570"/><line class="cls-2" x1="750" y1="720" x2="800" y2="720"/><line class="cls-2" x1="690" y1="470" x2="710" y2="470"/><line class="cls-2" x1="780" y1="520" x2="800" y2="520"/><polygon class="cls-3" points="510 780 510 770 510 760 520 760 530 760 510 780"/><line class="cls-2" x1="100" y1="770" x2="180" y2="770"/><line class="cls-2" y1="770" x2="40" y2="770"/><line class="cls-2" x1="250" y1="770" x2="340" y2="770"/><line class="cls-2" x1="640" y1="570" x2="730" y2="570"/><polygon class="cls-3" points="210 780 210 770 210 760 220 760 230 760 210 780"/><polygon class="cls-3" points="540 630 540 620 540 610 550 610 560 610 540 630"/><polygon class="cls-3" points="380 480 380 470 380 460 390 460 400 460 380 480"/><polygon class="cls-3" points="620 530 620 520 620 510 630 510 640 510 620 530"/><line class="cls-2" x1="870" y1="520" x2="980" y2="520"/><line class="cls-2" x1="1000" y1="520" x2="1120" y2="520"/><line class="cls-2" x1="1200" y1="520" x2="1330" y2="520"/><line class="cls-2" x1="1140" y1="520" x2="1180" y2="520"/><line class="cls-2" x1="800" y1="520" x2="850" y2="520"/><line class="cls-2" x1="1350" y1="520" x2="1390" y2="520"/><line class="cls-2" x1="1460" y1="520" x2="1560" y2="520"/><line class="cls-2" x1="900" y1="569.41" x2="950" y2="570"/><line class="cls-2" x1="800" y1="670" x2="840" y2="670"/><line class="cls-2" x1="910" y1="670" x2="980" y2="670"/><line class="cls-2" x1="1340" y1="670" x2="1380" y2="670"/><line class="cls-2" x1="1460" y1="620" x2="1500" y2="620"/><line class="cls-2" x1="1020" y1="570" x2="1100" y2="570"/><line class="cls-2" x1="1090" y1="620" x2="1200" y2="620"/><line class="cls-2" x1="1310" y1="470" x2="1470" y2="470"/><line class="cls-2" x1="1000" y1="670" x2="1140" y2="670"/><line class="cls-2" x1="1220" y1="620" x2="1310" y2="620"/><line class="cls-2" x1="1120" y1="570" x2="1180" y2="570"/><line class="cls-2" x1="1220" y1="470" x2="1290" y2="470"/><line class="cls-2" x1="1530" y1="470" x2="1600" y2="470"/><line class="cls-2" x1="1160" y1="670" x2="1280" y2="670"/><line class="cls-2" x1="1440" y1="670" x2="1600" y2="670"/><line class="cls-2" x1="1240" y1="570" x2="1420" y2="570"/><line class="cls-2" x1="880" y1="620" x2="1030" y2="620"/><line class="cls-2" x1="1200" y1="570" x2="1220" y2="570"/><line class="cls-2" x1="1050" y1="620" x2="1070" y2="620"/><line class="cls-2" x1="860" y1="570" x2="880" y2="570"/><line class="cls-2" x1="800" y1="570" x2="840" y2="570"/><line class="cls-2" x1="1520" y1="620" x2="1600" y2="620"/><line class="cls-2" x1="1300" y1="670" x2="1320" y2="670"/><line class="cls-2" x1="1400" y1="670" x2="1420" y2="670"/><line class="cls-2" x1="800" y1="470" x2="880" y2="470"/><line class="cls-2" x1="1110" y1="470" x2="1150" y2="470"/><line class="cls-2" x1="1010" y1="470" x2="1050" y2="470"/><line class="cls-2" x1="1070" y1="470" x2="1090" y2="470"/><line class="cls-2" x1="870" y1="720" x2="1020" y2="720"/><line class="cls-2" x1="1119.33" y1="720.18" x2="1190" y2="720"/><line class="cls-2" x1="800" y1="720" x2="850" y2="720"/><line class="cls-2" x1="900" y1="470.18" x2="990" y2="470"/><line class="cls-2" x1="1209.33" y1="720" x2="1280" y2="719.82"/><line class="cls-2" x1="1300" y1="720" x2="1450" y2="720"/><line class="cls-2" x1="1080" y1="720" x2="1100" y2="720"/><line class="cls-2" x1="1160" y1="770" x2="1180" y2="770"/><line class="cls-2" x1="1040" y1="720" x2="1060" y2="720"/><line class="cls-2" x1="1380" y1="620" x2="1440" y2="620"/><line class="cls-2" x1="800" y1="620" x2="860" y2="620"/><line class="cls-2" x1="1470" y1="720" x2="1530" y2="720"/><line class="cls-2" x1="1500" y1="770" x2="1600" y2="770"/><polygon class="cls-3" points="980 580 980 570 980 560 990 560 1000 560 980 580"/><line class="cls-2" x1="990" y1="420" x2="1120" y2="420"/><line class="cls-2" x1="940" y1="420" x2="970" y2="420"/><line class="cls-2" x1="850" y1="420" x2="870" y2="420"/><line class="cls-2" x1="800" y1="420" x2="830" y2="420"/><polygon class="cls-3" points="900 430 900 420 900 410 910 410 920 410 900 430"/><polygon class="cls-3" points="870 680 870 670 870 660 880 660 890 660 870 680"/><line class="cls-2" x1="1340" y1="420" x2="1380" y2="420"/><line class="cls-2" x1="1140" y1="420" x2="1280" y2="420"/><line class="cls-2" x1="1440" y1="420" x2="1600" y2="420"/><line class="cls-2" x1="1300" y1="420" x2="1320" y2="420"/><line class="cls-2" x1="1400" y1="420" x2="1420" y2="420"/><line class="cls-2" x1="1200" y1="770" x2="1280" y2="770"/><line class="cls-2" x1="1350" y1="770" x2="1480" y2="770"/><line class="cls-2" x1="860" y1="770" x2="880" y2="770"/><line class="cls-2" x1="1550" y1="570" x2="1600" y2="570"/><line class="cls-2" x1="1550" y1="720" x2="1600" y2="720"/><line class="cls-2" x1="1490" y1="470" x2="1510" y2="470"/><line class="cls-2" x1="1580" y1="520" x2="1600" y2="520"/><polygon class="cls-3" points="1310 780 1310 770 1310 760 1320 760 1330 760 1310 780"/><line class="cls-2" x1="900" y1="770" x2="980" y2="770"/><line class="cls-2" x1="800" y1="770" x2="840" y2="770"/><line class="cls-2" x1="1050" y1="770" x2="1140" y2="770"/><line class="cls-2" x1="1440" y1="570" x2="1530" y2="570"/><polygon class="cls-3" points="1010 780 1010 770 1010 760 1020 760 1030 760 1010 780"/><polygon class="cls-3" points="1340 630 1340 620 1340 610 1350 610 1360 610 1340 630"/><polygon class="cls-3" points="1180 480 1180 470 1180 460 1190 460 1200 460 1180 480"/><polygon class="cls-3" points="1420 530 1420 520 1420 510 1430 510 1440 510 1420 530"/><line class="cls-2" x1="70" y1="120" x2="180" y2="120"/><line class="cls-2" x1="200" y1="120" x2="320" y2="120"/><line class="cls-2" x1="400" y1="120" x2="530" y2="120"/><line class="cls-2" x1="340" y1="120" x2="380" y2="120"/><line class="cls-2" y1="120" x2="50" y2="120"/><line class="cls-2" x1="550" y1="120" x2="590" y2="120"/><line class="cls-2" x1="660" y1="120" x2="760" y2="120"/><line class="cls-2" x1="100" y1="169.41" x2="150" y2="170"/><line class="cls-2" y1="270" x2="40" y2="270"/><line class="cls-2" x1="110" y1="270" x2="180" y2="270"/><line class="cls-2" x1="540" y1="270" x2="580" y2="270"/><line class="cls-2" x1="660" y1="220" x2="700" y2="220"/><line class="cls-2" x1="220" y1="170" x2="300" y2="170"/><line class="cls-2" x1="290" y1="220" x2="400" y2="220"/><line class="cls-2" x1="510" y1="70" x2="670" y2="70"/><line class="cls-2" x1="200" y1="270" x2="340" y2="270"/><line class="cls-2" x1="420" y1="220" x2="510" y2="220"/><line class="cls-2" x1="320" y1="170" x2="380" y2="170"/><line class="cls-2" x1="420" y1="70" x2="490" y2="70"/><line class="cls-2" x1="730" y1="70" x2="800" y2="70"/><line class="cls-2" x1="360" y1="270" x2="480" y2="270"/><line class="cls-2" x1="640" y1="270" x2="800" y2="270"/><line class="cls-2" x1="440" y1="170" x2="620" y2="170"/><line class="cls-2" x1="80" y1="220" x2="230" y2="220"/><line class="cls-2" x1="400" y1="170" x2="420" y2="170"/><line class="cls-2" x1="250" y1="220" x2="270" y2="220"/><line class="cls-2" x1="60" y1="170" x2="80" y2="170"/><line class="cls-2" y1="170" x2="40" y2="170"/><line class="cls-2" x1="720" y1="220" x2="800" y2="220"/><line class="cls-2" x1="500" y1="270" x2="520" y2="270"/><line class="cls-2" x1="600" y1="270" x2="620" y2="270"/><line class="cls-2" y1="70" x2="80" y2="70"/><line class="cls-2" x1="310" y1="70" x2="350" y2="70"/><line class="cls-2" x1="210" y1="70" x2="250" y2="70"/><line class="cls-2" x1="270" y1="70" x2="290" y2="70"/><line class="cls-2" x1="70" y1="320" x2="220" y2="320"/><line class="cls-2" x1="319.33" y1="320.18" x2="390" y2="320"/><line class="cls-2" y1="320" x2="50" y2="320"/><line class="cls-2" x1="100" y1="70.18" x2="190" y2="70"/><line class="cls-2" x1="409.33" y1="320" x2="480" y2="319.82"/><line class="cls-2" x1="500" y1="320" x2="650" y2="320"/><line class="cls-2" x1="280" y1="320" x2="300" y2="320"/><line class="cls-2" x1="360" y1="370" x2="380" y2="370"/><line class="cls-2" x1="240" y1="320" x2="260" y2="320"/><line class="cls-2" x1="580" y1="220" x2="640" y2="220"/><line class="cls-2" y1="220" x2="60" y2="220"/><line class="cls-2" x1="670" y1="320" x2="730" y2="320"/><line class="cls-2" x1="700" y1="370" x2="800" y2="370"/><polygon class="cls-3" points="180 180 180 170 180 160 190 160 200 160 180 180"/><line class="cls-2" x1="190" y1="20" x2="320" y2="20"/><line class="cls-2" x1="140" y1="20" x2="170" y2="20"/><line class="cls-2" x1="50" y1="20" x2="70" y2="20"/><line class="cls-2" y1="20" x2="30" y2="20"/><polygon class="cls-3" points="100 30 100 20 100 10 110 10 120 10 100 30"/><polygon class="cls-3" points="70 280 70 270 70 260 80 260 90 260 70 280"/><line class="cls-2" x1="540" y1="20" x2="580" y2="20"/><line class="cls-2" x1="340" y1="20" x2="480" y2="20"/><line class="cls-2" x1="640" y1="20" x2="800" y2="20"/><line class="cls-2" x1="500" y1="20" x2="520" y2="20"/><line class="cls-2" x1="600" y1="20" x2="620" y2="20"/><line class="cls-2" x1="400" y1="370" x2="480" y2="370"/><line class="cls-2" x1="550" y1="370" x2="680" y2="370"/><line class="cls-2" x1="60" y1="370" x2="80" y2="370"/><line class="cls-2" x1="750" y1="170" x2="800" y2="170"/><line class="cls-2" x1="750" y1="320" x2="800" y2="320"/><line class="cls-2" x1="690" y1="70" x2="710" y2="70"/><line class="cls-2" x1="780" y1="120" x2="800" y2="120"/><polygon class="cls-3" points="510 380 510 370 510 360 520 360 530 360 510 380"/><line class="cls-2" x1="100" y1="370" x2="180" y2="370"/><line class="cls-2" y1="370" x2="40" y2="370"/><line class="cls-2" x1="250" y1="370" x2="340" y2="370"/><line class="cls-2" x1="640" y1="170" x2="730" y2="170"/><polygon class="cls-3" points="210 380 210 370 210 360 220 360 230 360 210 380"/><polygon class="cls-3" points="540 230 540 220 540 210 550 210 560 210 540 230"/><polygon class="cls-3" points="380 80 380 70 380 60 390 60 400 60 380 80"/><polygon class="cls-3" points="620 130 620 120 620 110 630 110 640 110 620 130"/><line class="cls-2" x1="900" y1="169.41" x2="950" y2="170"/><line class="cls-2" x1="1020" y1="170" x2="1100" y2="170"/><line class="cls-2" x1="1120" y1="170" x2="1180" y2="170"/><line class="cls-2" x1="1240" y1="170" x2="1420" y2="170"/><line class="cls-2" x1="1200" y1="170" x2="1220" y2="170"/><line class="cls-2" x1="860" y1="170" x2="880" y2="170"/><line class="cls-2" x1="800" y1="170" x2="840" y2="170"/><polygon class="cls-3" points="980 180 980 170 980 160 990 160 1000 160 980 180"/><line class="cls-2" x1="800" y1="270" x2="840" y2="270"/><line class="cls-2" x1="910" y1="270" x2="980" y2="270"/><line class="cls-2" x1="1340" y1="270" x2="1380" y2="270"/><line class="cls-2" x1="1000" y1="270" x2="1140" y2="270"/><line class="cls-2" x1="1160" y1="270" x2="1280" y2="270"/><line class="cls-2" x1="1440" y1="270" x2="1600" y2="270"/><line class="cls-2" x1="1300" y1="270" x2="1320" y2="270"/><line class="cls-2" x1="1400" y1="270" x2="1420" y2="270"/><polygon class="cls-3" points="870 280 870 270 870 260 880 260 890 260 870 280"/><line class="cls-2" x1="990" y1="20" x2="1120" y2="20"/><line class="cls-2" x1="940" y1="20" x2="970" y2="20"/><line class="cls-2" x1="850" y1="20" x2="870" y2="20"/><line class="cls-2" x1="800" y1="20" x2="830" y2="20"/><polygon class="cls-3" points="900 30 900 20 900 10 910 10 920 10 900 30"/><line class="cls-2" x1="1340" y1="20" x2="1380" y2="20"/><line class="cls-2" x1="1140" y1="20" x2="1280" y2="20"/><line class="cls-2" x1="1440" y1="20" x2="1600" y2="20"/><line class="cls-2" x1="1300" y1="20" x2="1320" y2="20"/><line class="cls-2" x1="1400" y1="20" x2="1420" y2="20"/><line class="cls-2" x1="1550" y1="170" x2="1600" y2="170"/><line class="cls-2" x1="870" y1="320" x2="1020" y2="320"/><line class="cls-2" x1="1119.33" y1="320.18" x2="1190" y2="320"/><line class="cls-2" x1="800" y1="320" x2="850" y2="320"/><line class="cls-2" x1="1209.33" y1="320" x2="1280" y2="319.82"/><line class="cls-2" x1="1300" y1="320" x2="1450" y2="320"/><line class="cls-2" x1="1080" y1="320" x2="1100" y2="320"/><line class="cls-2" x1="1040" y1="320" x2="1060" y2="320"/><line class="cls-2" x1="1470" y1="320" x2="1530" y2="320"/><line class="cls-2" x1="1550" y1="320" x2="1600" y2="320"/><line class="cls-2" x1="1440" y1="170" x2="1530" y2="170"/><line class="cls-2" x1="1160" y1="370" x2="1180" y2="370"/><line class="cls-2" x1="1500" y1="370" x2="1600" y2="370"/><line class="cls-2" x1="1200" y1="370" x2="1280" y2="370"/><line class="cls-2" x1="1350" y1="370" x2="1480" y2="370"/><line class="cls-2" x1="860" y1="370" x2="880" y2="370"/><polygon class="cls-3" points="1310 380 1310 370 1310 360 1320 360 1330 360 1310 380"/><line class="cls-2" x1="900" y1="370" x2="980" y2="370"/><line class="cls-2" x1="800" y1="370" x2="840" y2="370"/><line class="cls-2" x1="1050" y1="370" x2="1140" y2="370"/><polygon class="cls-3" points="1010 380 1010 370 1010 360 1020 360 1030 360 1010 380"/><line class="cls-2" x1="1460" y1="220" x2="1500" y2="220"/><line class="cls-2" x1="1090" y1="220" x2="1200" y2="220"/><line class="cls-2" x1="1220" y1="220" x2="1310" y2="220"/><line class="cls-2" x1="880" y1="220" x2="1030" y2="220"/><line class="cls-2" x1="1050" y1="220" x2="1070" y2="220"/><line class="cls-2" x1="1520" y1="220" x2="1600" y2="220"/><line class="cls-2" x1="1380" y1="220" x2="1440" y2="220"/><line class="cls-2" x1="800" y1="220" x2="860" y2="220"/><polygon class="cls-3" points="1340 230 1340 220 1340 210 1350 210 1360 210 1340 230"/><line class="cls-2" x1="1310" y1="70" x2="1470" y2="70"/><line class="cls-2" x1="1220" y1="70" x2="1290" y2="70"/><line class="cls-2" x1="1530" y1="70" x2="1600" y2="70"/><line class="cls-2" x1="800" y1="70" x2="880" y2="70"/><line class="cls-2" x1="1110" y1="70" x2="1150" y2="70"/><line class="cls-2" x1="1010" y1="70" x2="1050" y2="70"/><line class="cls-2" x1="1070" y1="70" x2="1090" y2="70"/><line class="cls-2" x1="900" y1="70.18" x2="990" y2="70"/><line class="cls-2" x1="1490" y1="70" x2="1510" y2="70"/><polygon class="cls-3" points="1180 80 1180 70 1180 60 1190 60 1200 60 1180 80"/><line class="cls-2" x1="870" y1="120" x2="980" y2="120"/><line class="cls-2" x1="1000" y1="120" x2="1120" y2="120"/><line class="cls-2" x1="1200" y1="120" x2="1330" y2="120"/><line class="cls-2" x1="1140" y1="120" x2="1180" y2="120"/><line class="cls-2" x1="800" y1="120" x2="850" y2="120"/><line class="cls-2" x1="1350" y1="120" x2="1390" y2="120"/><line class="cls-2" x1="1460" y1="120" x2="1560" y2="120"/><line class="cls-2" x1="1580" y1="120" x2="1600" y2="120"/><polygon class="cls-3" points="1420 130 1420 120 1420 110 1430 110 1440 110 1420 130"/></g></g></svg>