<svg xmlns="http://www.w3.org/2000/svg" viewBox="0 0 1800.03 400"><defs><style>.cls-1{fill:#142dc8;}.cls-2{fill:none;stroke:#191919;stroke-miterlimit:10;stroke-width:8px;}.cls-3{fill:#b9af00;}.cls-11,.cls-4,.cls-9{font-size:32px;fill:#f5f5f5;font-family:Montserrat-ExtraBold, Montserrat;font-weight:800;}.cls-10,.cls-4{letter-spacing:0.1em;}.cls-5{letter-spacing:0.09em;}.cls-6,.cls-9{letter-spacing:0.08em;}.cls-7{letter-spacing:0.08em;}.cls-11,.cls-8{letter-spacing:0.1em;}.cls-12{letter-spacing:0.09em;}.cls-13{letter-spacing:0.09em;}</style></defs><title>Asset 10</title><g id="Layer_2" data-name="Layer 2"><g id="text"><rect class="cls-1" x="0.03" width="1800" height="400"/><line class="cls-2" x1="327.87" y1="130" x2="380.03" y2="130"/><line class="cls-2" x1="400.03" y1="130" x2="520.03" y2="130"/><line class="cls-2" x1="600.03" y1="130" x2="730.03" y2="130"/><line class="cls-2" x1="540.03" y1="130" x2="580.03" y2="130"/><line class="cls-2" x1="110.03" y1="130" x2="257.87" y2="130"/><line class="cls-2" x1="750.03" y1="130" x2="790.03" y2="130"/><line class="cls-2" x1="860.03" y1="130" x2="960.03" y2="130"/><line class="cls-2" x1="300.03" y1="179.41" x2="350.03" y2="180"/><line class="cls-2" x1="70.03" y1="180" x2="120.03" y2="180.59"/><line class="cls-2" x1="120.03" y1="280" x2="180.03" y2="280"/><line class="cls-2" x1="162.19" y1="230" x2="180.03" y2="230"/><line class="cls-2" x1="250.03" y1="280" x2="380.03" y2="280"/><line class="cls-2" x1="0.03" y1="129.27" x2="92.19" y2="129.27"/><line class="cls-2" x1="80.03" y1="280" x2="100.03" y2="280"/><line class="cls-2" x1="0.03" y1="280" x2="60.03" y2="280"/><line class="cls-2" x1="860.03" y1="230" x2="900.03" y2="230"/><line class="cls-2" x1="370.03" y1="180" x2="407.87" y2="180"/><line class="cls-2" x1="490.03" y1="230" x2="600.03" y2="230"/><line class="cls-2" x1="400.03" y1="280" x2="540.03" y2="280"/><line class="cls-2" x1="0.03" y1="230" x2="140.03" y2="230"/><line class="cls-2" x1="620.03" y1="230" x2="710.03" y2="230"/><line class="cls-2" x1="560.03" y1="280" x2="587.87" y2="280"/><line class="cls-2" x1="950.03" y1="280" x2="1027.87" y2="280"/><line class="cls-2" x1="737.87" y1="180" x2="777.87" y2="180"/><line class="cls-2" x1="327.87" y1="230" x2="430.03" y2="230"/><line class="cls-2" x1="450.03" y1="230" x2="470.03" y2="230"/><line class="cls-2" x1="727.87" y1="230" x2="747.87" y2="230"/><line class="cls-2" x1="260.03" y1="180" x2="280.03" y2="180"/><line class="cls-2" x1="140.03" y1="180" x2="240.03" y2="180"/><line class="cls-2" x1="920.03" y1="230" x2="1000.03" y2="230"/><line class="cls-2" x1="657.87" y1="280" x2="720.03" y2="280"/><line class="cls-2" x1="740.03" y1="280" x2="780.03" y2="280"/><line class="cls-2" x1="800.03" y1="280" x2="930.03" y2="280"/><line class="cls-2" x1="767.87" y1="230" x2="840.03" y2="230"/><line class="cls-2" x1="200.03" y1="230" x2="307.87" y2="230"/><line class="cls-2" x1="0.03" y1="179.63" x2="50.03" y2="180"/><polygon class="cls-3" points="437.87 190 437.87 180 437.87 170 447.87 170 457.87 170 437.87 190"/><polygon class="cls-3" points="287.87 140 287.87 130 287.87 120 297.87 120 307.87 120 287.87 140"/><polygon class="cls-3" points="617.87 290 617.87 280 617.87 270 627.87 270 637.87 270 617.87 290"/><polygon class="cls-3" points="1250.03 290 1250.03 280 1250.03 270 1260.03 270 1270.03 270 1250.03 290"/><polygon class="cls-3" points="1090.03 240 1090.03 230 1090.03 220 1100.03 220 1110.03 220 1090.03 240"/><polygon class="cls-3" points="210.03 290 210.03 280 210.03 270 220.03 270 230.03 270 210.03 290"/><line class="cls-2" x1="980.03" y1="130" x2="1000.03" y2="130"/><line class="cls-2" x1="897.87" y1="180" x2="937.87" y2="180"/><polygon class="cls-3" points="820.03 140 820.03 130 820.03 120 830.03 120 840.03 120 820.03 140"/><line class="cls-2" x1="1070.03" y1="130" x2="1180.03" y2="130"/><line class="cls-2" x1="1200.03" y1="130" x2="1217.87" y2="130"/><line class="cls-2" x1="1450.03" y1="130" x2="1530.03" y2="130"/><line class="cls-2" x1="1237.87" y1="130" x2="1380.03" y2="130"/><line class="cls-2" x1="1000.03" y1="130" x2="1050.03" y2="130"/><line class="cls-2" x1="1550.03" y1="130" x2="1590.03" y2="130"/><line class="cls-2" x1="1660.03" y1="130" x2="1760.03" y2="130"/><line class="cls-2" x1="1540.03" y1="280" x2="1580.03" y2="280"/><line class="cls-2" x1="1660.03" y1="230" x2="1700.03" y2="230"/><line class="cls-2" x1="1290.03" y1="230" x2="1370.03" y2="230"/><line class="cls-2" x1="1050.03" y1="280" x2="1220.03" y2="280"/><line class="cls-2" x1="1390.03" y1="230" x2="1510.03" y2="230"/><line class="cls-2" x1="1300.03" y1="180" x2="1380.03" y2="180"/><line class="cls-2" x1="1290.03" y1="280" x2="1480.03" y2="280"/><line class="cls-2" x1="1640.03" y1="280" x2="1800.03" y2="280"/><line class="cls-2" x1="1440.03" y1="180" x2="1620.03" y2="180"/><line class="cls-2" x1="1130.03" y1="230" x2="1230.03" y2="230"/><line class="cls-2" x1="1400.03" y1="180" x2="1420.03" y2="180"/><line class="cls-2" x1="1250.03" y1="230" x2="1270.03" y2="230"/><line class="cls-2" x1="1720.03" y1="230" x2="1800.03" y2="230"/><line class="cls-2" x1="1500.03" y1="280" x2="1520.03" y2="280"/><line class="cls-2" x1="1600.03" y1="280" x2="1620.03" y2="280"/><line class="cls-2" x1="1580.03" y1="230" x2="1640.03" y2="230"/><line class="cls-2" x1="1000.03" y1="230" x2="1060.03" y2="230"/><line class="cls-2" x1="1750.03" y1="180" x2="1800.03" y2="180"/><line class="cls-2" x1="1780.03" y1="130" x2="1800.03" y2="130"/><line class="cls-2" x1="1640.03" y1="180" x2="1730.03" y2="180"/><polygon class="cls-3" points="1540.03 240 1540.03 230 1540.03 220 1550.03 220 1560.03 220 1540.03 240"/><polygon class="cls-3" points="1620.03 140 1620.03 130 1620.03 120 1630.03 120 1640.03 120 1620.03 140"/><polygon class="cls-3" points="1410.03 140 1410.03 130 1410.03 120 1420.03 120 1430.03 120 1410.03 140"/><text class="cls-4" transform="translate(480.75 192.36)">И<tspan class="cls-5" x="29.44" y="0">С</tspan><tspan class="cls-6" x="55.65" y="0">Х</tspan><tspan class="cls-7" x="82.21" y="0">О</tspan><tspan class="cls-8" x="111.62" y="0">ДНЫЙ</tspan></text><text class="cls-9" transform="translate(796.41 192.36)">К<tspan class="cls-7" x="26.4" y="0">О</tspan><tspan class="cls-10" x="55.81" y="0">Д</tspan></text><text class="cls-11" transform="translate(956.42 192.36)">БЕЗОП<tspan class="cls-12" x="135.23" y="0">А</tspan><tspan x="164.48" y="0">СНО</tspan><tspan class="cls-13" x="250.43" y="0">С</tspan><tspan x="276.83" y="0">ТИ</tspan></text></g></g></svg>