<svg xmlns="http://www.w3.org/2000/svg" viewBox="0 0 42.51 49.21"><defs><style>.cls-1{fill:#142dc8;}.cls-2{fill:#b9af00;}</style></defs><title>Asset 12</title><g id="Layer_2" data-name="Layer 2"><g id="Layer_2-2" data-name="Layer 2"><rect class="cls-1" x="35.2" y="12.42" width="7.31" height="5"/><rect class="cls-1" y="12.33" width="7.31" height="5"/><rect class="cls-1" x="35.2" y="21.74" width="7.31" height="5"/><rect class="cls-1" y="21.65" width="7.31" height="5"/><rect class="cls-1" x="35.2" y="31.07" width="7.31" height="5"/><rect class="cls-1" y="30.97" width="7.31" height="5"/><rect class="cls-1" x="26.55" width="5" height="7.98"/><rect class="cls-1" x="10.64" width="5" height="7.98"/><path class="cls-1" d="M21.09,49.21,4.38,42.15V6.69l6.26,1.08V5.48H31.55V7.77l6.26-1.08V42.15ZM9.38,38.84l11.71,4.94,11.72-4.94V12.63l-6.26,1.08V10.48H15.64v3.23L9.38,12.63Z"/><rect class="cls-2" x="18.59" y="15.99" width="5" height="22.5" transform="translate(-13.08 22.89) rotate(-45)"/><rect class="cls-2" x="9.84" y="24.74" width="22.5" height="5" transform="translate(-13.08 22.89) rotate(-45)"/><rect class="cls-1" x="18.59" y="7.98" width="5" height="6.94"/></g></g></svg>