<svg xmlns="http://www.w3.org/2000/svg" viewBox="0 0 49.4 40.07"><defs><style>.cls-1{fill:#142dc8;}.cls-2{fill:#b9af00;}</style></defs><title>Asset 8</title><g id="Layer_2" data-name="Layer 2"><g id="Layer_2-2" data-name="Layer 2"><rect class="cls-1" x="43.84" width="5.57" height="5"/><rect class="cls-1" x="38.38" width="5.57" height="5"/><rect class="cls-1" x="32.94" width="5.57" height="5"/><rect class="cls-1" x="27.49" width="5.57" height="5"/><rect class="cls-2" x="16.35" width="5.57" height="5"/><rect class="cls-1" x="5.46" width="5.57" height="5"/><rect class="cls-1" width="5.57" height="5"/><rect class="cls-1" x="43.84" y="11.69" width="5.57" height="5"/><rect class="cls-1" x="38.38" y="11.69" width="5.57" height="5"/><rect class="cls-1" x="32.94" y="11.69" width="5.57" height="5"/><rect class="cls-1" x="21.92" y="11.69" width="5.57" height="5"/><rect class="cls-1" x="16.35" y="11.69" width="5.57" height="5"/><rect class="cls-1" x="10.89" y="11.69" width="5.57" height="5"/><rect class="cls-1" y="11.69" width="5.57" height="5"/><rect class="cls-2" x="43.84" y="23.38" width="5.57" height="5"/><rect class="cls-1" x="32.94" y="23.38" width="5.57" height="5"/><rect class="cls-1" x="27.49" y="23.38" width="5.57" height="5"/><rect class="cls-1" x="21.92" y="23.38" width="5.57" height="5"/><rect class="cls-1" x="16.35" y="23.38" width="5.57" height="5"/><rect class="cls-1" x="5.46" y="23.38" width="5.57" height="5"/><rect class="cls-1" y="23.38" width="5.57" height="5"/><rect class="cls-1" x="43.84" y="35.07" width="5.57" height="5"/><rect class="cls-1" x="38.38" y="35.07" width="5.57" height="5"/><rect class="cls-2" x="27.49" y="35.07" width="5.57" height="5"/><rect class="cls-1" x="16.35" y="35.07" width="5.57" height="5"/><rect class="cls-1" x="10.89" y="35.07" width="5.57" height="5"/><rect class="cls-1" x="5.46" y="35.07" width="5.57" height="5"/><rect class="cls-1" y="35.07" width="5.57" height="5"/></g></g></svg>