<svg xmlns="http://www.w3.org/2000/svg" viewBox="0 0 53.24 53.23"><defs><style>.cls-1{fill:#142dc8;}.cls-2{fill:#b9af00;}</style></defs><title>Asset 1</title><g id="Layer_2" data-name="Layer 2"><g id="Layer_2-2" data-name="Layer 2"><path class="cls-1" d="M18.56,37.12A18.57,18.57,0,1,1,31.69,5.43h0A18.56,18.56,0,0,1,18.56,37.12ZM18.56,5a13.57,13.57,0,1,0,9.6,4A13.5,13.5,0,0,0,18.56,5Z"/><path class="cls-2" d="M18.56,27.77a9.21,9.21,0,1,1,6.51-15.72h0a9.21,9.21,0,0,1-6.51,15.72Zm0-13.41a4.21,4.21,0,1,0,3,7.17,4.2,4.2,0,0,0,0-5.94h0A4.13,4.13,0,0,0,18.56,14.36Z"/><path class="cls-1" d="M44.48,53.23,29.87,38.62l8.76-8.75L53.24,44.48ZM36.94,38.62l7.54,7.54,1.69-1.68-7.54-7.54Z"/><rect class="cls-1" x="29.94" y="28.88" width="5" height="7.12" transform="translate(-13.44 32.44) rotate(-45)"/></g></g></svg>