<svg xmlns="http://www.w3.org/2000/svg" viewBox="0 0 50.55 50.55"><defs><style>.cls-1{fill:#142dc8;}.cls-2{fill:#b9af00;}</style></defs><title>Asset 11</title><g id="Layer_2" data-name="Layer 2"><g id="Layer_2-2" data-name="Layer 2"><path class="cls-1" d="M25.28,50.55a25.28,25.28,0,1,1,17.88-7.39A25.18,25.18,0,0,1,25.28,50.55ZM25.28,5a20.28,20.28,0,1,0,14.34,5.93A20.21,20.21,0,0,0,25.28,5Z"/><rect class="cls-1" x="32.48" y="10.35" width="10.44" height="5" transform="translate(1.95 30.42) rotate(-45)"/><rect class="cls-1" x="7.63" y="35.2" width="10.44" height="5" transform="translate(-22.89 20.13) rotate(-45)"/><rect class="cls-1" x="32.48" y="10.35" width="10.44" height="5" transform="translate(1.95 30.42) rotate(-45)"/><rect class="cls-2" x="20.06" y="22.78" width="10.44" height="5" transform="translate(-10.47 25.27) rotate(-45)"/><rect class="cls-2" x="22.78" y="20.06" width="5" height="10.44" transform="translate(-10.47 25.28) rotate(-45)"/><rect class="cls-1" x="7.63" y="35.2" width="10.44" height="5" transform="translate(-22.89 20.13) rotate(-45)"/><rect class="cls-1" x="10.35" y="7.63" width="5" height="10.44" transform="translate(-5.32 12.85) rotate(-45)"/><rect class="cls-1" x="35.2" y="32.48" width="5" height="10.44" transform="translate(-15.62 37.7) rotate(-45)"/></g></g></svg>