<svg xmlns="http://www.w3.org/2000/svg" viewBox="0 0 56.92 45.41"><defs><style>.cls-1{fill:#142dc8;}.cls-2{fill:#b9af00;}</style></defs><title>Asset 9</title><g id="Layer_2" data-name="Layer 2"><g id="Layer_2-2" data-name="Layer 2"><rect class="cls-1" x="50.51" width="6.41" height="5"/><rect class="cls-1" x="44.22" width="6.41" height="5"/><rect class="cls-1" x="37.96" width="6.41" height="5"/><rect class="cls-1" x="31.67" width="6.41" height="5"/><rect class="cls-2" x="18.84" width="6.42" height="5"/><rect class="cls-1" x="6.29" width="6.42" height="5"/><rect class="cls-1" width="6.42" height="5"/><rect class="cls-1" x="50.51" y="13.47" width="6.41" height="5"/><rect class="cls-1" x="44.22" y="13.47" width="6.41" height="5"/><rect class="cls-1" x="37.96" y="13.47" width="6.41" height="5"/><rect class="cls-1" x="25.25" y="13.47" width="6.41" height="5"/><rect class="cls-1" x="18.84" y="13.47" width="6.42" height="5"/><rect class="cls-1" x="12.55" y="13.47" width="6.42" height="5"/><rect class="cls-1" y="13.47" width="6.42" height="5"/><rect class="cls-2" x="50.51" y="26.94" width="6.41" height="5"/><rect class="cls-1" x="37.96" y="26.94" width="6.41" height="5"/><rect class="cls-1" x="31.67" y="26.94" width="6.41" height="5"/><rect class="cls-1" x="25.25" y="26.94" width="6.41" height="5"/><rect class="cls-1" x="18.84" y="26.94" width="6.42" height="5"/><rect class="cls-1" x="6.29" y="26.94" width="6.42" height="5"/><rect class="cls-1" y="26.94" width="6.42" height="5"/><rect class="cls-1" x="50.51" y="40.41" width="6.41" height="5"/><rect class="cls-1" x="44.22" y="40.41" width="6.41" height="5"/><rect class="cls-2" x="31.67" y="40.41" width="6.41" height="5"/><rect class="cls-1" x="18.84" y="40.41" width="6.42" height="5"/><rect class="cls-1" x="12.55" y="40.41" width="6.42" height="5"/><rect class="cls-1" x="6.29" y="40.41" width="6.42" height="5"/><rect class="cls-1" y="40.41" width="6.42" height="5"/></g></g></svg>