<svg xmlns="http://www.w3.org/2000/svg" viewBox="0 0 55.65 51.95"><defs><style>.cls-1{fill:#142dc8;}.cls-2{fill:#b9af00;}</style></defs><title>Asset 5</title><g id="Layer_2" data-name="Layer 2"><g id="Layer_2-2" data-name="Layer 2"><path class="cls-1" d="M46.46,35.9H42.27v-5h4.19a4.2,4.2,0,0,0,0-8.39H43.11v-5h3.35a9.2,9.2,0,0,1,0,18.39Z"/><polygon class="cls-1" points="45.61 27.6 40.61 27.6 40.61 22.51 5 22.51 5 27.6 0 27.6 0 17.51 45.61 17.51 45.61 27.6"/><path class="cls-1" d="M22.8,50.4A22.83,22.83,0,0,1,0,27.6H5a17.81,17.81,0,0,0,35.61,0h5A22.83,22.83,0,0,1,22.8,50.4Z"/><rect class="cls-1" x="1.74" y="46.95" width="41.37" height="5"/><rect class="cls-1" x="1.74" y="25.1" width="41.37" height="5"/><polygon class="cls-2" points="19.52 13.62 15.99 10.08 18.06 8.01 15.99 5.95 19.52 2.41 25.13 8.01 19.52 13.62"/><polygon class="cls-2" points="27.75 14.92 24.21 11.38 28.09 7.5 24.12 3.54 27.66 0 35.16 7.5 27.75 14.92"/></g></g></svg>