<svg xmlns="http://www.w3.org/2000/svg" viewBox="0 0 56.22 47.78"><defs><style>.cls-1{fill:#b9af00;}.cls-2{fill:#142dc8;}</style></defs><title>Asset 7</title><g id="Layer_2" data-name="Layer 2"><g id="Layer_2-2" data-name="Layer 2"><rect class="cls-1" x="20.1" y="32.97" width="5" height="14.81"/><path class="cls-1" d="M31.12,27.89v7.93h5V27.89a8,8,0,1,0-16,0V28h5v-.08a3,3,0,1,1,6,0Z"/><rect class="cls-1" x="31.12" y="40.82" width="5" height="6.96"/><path class="cls-2" d="M41,14.93l-2.13,5.15a13.29,13.29,0,0,1,2.65,8V47.78h5V28.05A18.35,18.35,0,0,0,41,14.93Z"/><rect class="cls-2" x="9.72" y="40.52" width="5" height="7.26"/><path class="cls-2" d="M28.11,9.66A18.41,18.41,0,0,0,9.72,28.05v7.47h5V28.05A13.37,13.37,0,0,1,34.91,16.53l1.93-4.67A18.35,18.35,0,0,0,28.11,9.66Z"/><path class="cls-2" d="M36,1.13,34.71,6A23.16,23.16,0,0,1,51.22,28.11v4.47h5V28.11A28.16,28.16,0,0,0,36,1.13Z"/><path class="cls-2" d="M28.11,0A28.09,28.09,0,0,0,5.37,11.61l3.9,3.14A23.09,23.09,0,0,1,28.11,5c.56,0,1.11,0,1.66.07L31.08.16A26.61,26.61,0,0,0,28.11,0Z"/><path class="cls-2" d="M2.78,15.94A27.88,27.88,0,0,0,0,28.11V47.78H5V28.11a22.94,22.94,0,0,1,1.8-8.94Z"/><rect class="cls-2" x="51.22" y="37.58" width="5" height="10.2"/></g></g></svg>